<svg width="24" height="24" viewBox="0 0 24 24" xmlns="http://www.w3.org/2000/svg">
    <g transform="translate(-1024 -20)" fill="none" fill-rule="evenodd">
        <rect stroke="#E5E7EB" fill="#FFF" x=".5" y=".5" width="1111" height="63" rx="2"/>
        <path d="M1024 20h24v24h-24z"/>
        <path d="M1036 21.5c-5.799 0-10.5 4.701-10.5 10.5s4.701 10.5 10.5 10.5 10.5-4.701 10.5-10.5a10.5 10.5 0 0 0-10.5-10.5zm-1.5 14.693-3.75-3.75 1.193-1.193 2.557 2.557 5.557-5.557 1.197 1.19-6.754 6.753z" fill="#00C326"/>
        <path fill="#FFF" d="m1034.5 36.193-3.75-3.75 1.193-1.193 2.557 2.557 5.557-5.557 1.197 1.189z"/>
    </g>
</svg>
